HIERARCHY
ROOT pelvis
{
	OFFSET 0.000000 0.946482 -0.000000
	CHANNELS 6 Xposition Yposition Zposition Xrotation Yrotation Zrotation
	JOINT spine
	{
		OFFSET 0.000000 0.000000 0.000000
		CHANNELS 6 Xposition Yposition Zposition Xrotation Yrotation Zrotation
		JOINT spine.001
		{
			OFFSET 0.000000 0.282854 0.014824
			CHANNELS 3 Xrotation Yrotation Zrotation
			JOINT neck
			{
				OFFSET 0.000000 0.281131 -0.034519
				CHANNELS 6 Xposition Yposition Zposition Xrotation Yrotation Zrotation
				JOINT face
				{
					OFFSET 0.000000 0.216495 -0.003779
					CHANNELS 6 Xposition Yposition Zposition Xrotation Yrotation Zrotation
					End Site
					{
						OFFSET 0.000000 -0.009112 0.031188
					}
				}
			}
			JOINT shoulder.L
			{
				OFFSET 0.000000 0.281131 -0.034519
				CHANNELS 6 Xposition Yposition Zposition Yrotation Xrotation Zrotation
				JOINT upper_arm.L
				{
					OFFSET 0.181840 0.000000 0.000000
					CHANNELS 6 Xposition Yposition Zposition Xrotation Yrotation Zrotation
					JOINT forearm.L
					{
						OFFSET 0.301621 0.001119 -0.000135
						CHANNELS 6 Xposition Yposition Zposition Xrotation Yrotation Zrotation
						End Site
						{
							OFFSET 0.295879 -0.001544 0.005041
						}
					}
				}
			}
			JOINT shoulder.R
			{
				OFFSET 0.000000 0.281131 -0.034519
				CHANNELS 6 Xposition Yposition Zposition Yrotation Xrotation Zrotation
				JOINT upper_arm.R
				{
					OFFSET -0.181840 0.000000 0.000000
					CHANNELS 6 Xposition Yposition Zposition Xrotation Yrotation Zrotation
					JOINT forearm.R
					{
						OFFSET -0.299418 0.001119 -0.000135
						CHANNELS 6 Xposition Yposition Zposition Xrotation Yrotation Zrotation
						End Site
						{
							OFFSET -0.290716 -0.001543 0.004951
						}
					}
				}
			}
		}
	}
	JOINT pelvis.L
	{
		OFFSET 0.000000 0.000000 0.000000
		CHANNELS 6 Xposition Yposition Zposition Yrotation Xrotation Zrotation
		End Site
		{
			OFFSET 0.101646 0.000000 0.000000
		}
	}
	JOINT pelvis.R
	{
		OFFSET 0.000000 0.000000 0.000000
		CHANNELS 6 Xposition Yposition Zposition Yrotation Xrotation Zrotation
		End Site
		{
			OFFSET -0.101646 0.000000 0.000000
		}
	}
	JOINT thigh.L
	{
		OFFSET 0.101646 0.000000 0.000000
		CHANNELS 6 Xposition Yposition Zposition Xrotation Yrotation Zrotation
		JOINT shin.L
		{
			OFFSET 0.022393 -0.427281 0.000000
			CHANNELS 6 Xposition Yposition Zposition Xrotation Yrotation Zrotation
			JOINT foot.L
			{
				OFFSET 0.022450 -0.428364 0.000000
				CHANNELS 6 Xposition Yposition Zposition Xrotation Yrotation Zrotation
				End Site
				{
					OFFSET 0.019133 -0.081917 0.195080
				}
			}
		}
	}
	JOINT thigh.R
	{
		OFFSET -0.101646 0.000000 0.000000
		CHANNELS 6 Xposition Yposition Zposition Xrotation Yrotation Zrotation
		JOINT shin.R
		{
			OFFSET -0.021811 -0.416178 0.000000
			CHANNELS 6 Xposition Yposition Zposition Xrotation Yrotation Zrotation
			JOINT foot.R
			{
				OFFSET -0.023542 -0.449215 0.000000
				CHANNELS 6 Xposition Yposition Zposition Xrotation Yrotation Zrotation
				End Site
				{
					OFFSET -0.019950 -0.085416 0.203411
				}
			}
		}
	}
}
MOTION
Frames: 6
Frame Time: 0.041667
0.058776 -0.014956 0.000086 0.000001 -7.315564 0.000005 -0.000000 -0.000000 0.000000 -11.089704 0.705257 -4.691370 10.020870 4.410955 -0.542692 -0.000000 0.281131 -0.034518 15.628670 7.706409 -3.577739 -0.000000 0.216495 -0.003779 7.056376 0.000005 -0.000000 -0.000000 0.281131 -0.034519 -0.030696 -0.000064 -0.250537 0.181839 -0.000000 0.000000 4.265746 5.288865 -78.737068 0.301621 0.001119 -0.000135 -16.838375 -35.872092 -50.656904 -0.000000 0.281131 -0.034519 -0.037494 -0.000099 -0.305416 -0.181839 -0.000000 0.000000 -5.947321 7.460785 77.136591 -0.299418 0.001119 -0.000135 -10.970547 32.134582 38.205916 -0.000000 0.000000 0.000000 0.000055 0.000002 -5.336408 -0.000000 0.000000 0.000000 0.000002 0.000000 -5.336434 0.101205 -0.009453 -0.000000 0.412467 0.002869 -5.201520 0.022393 -0.427281 0.000000 10.279546 0.660846 1.336972 0.022450 -0.428364 0.000000 -10.491845 3.657051 3.009921 -0.101205 0.009453 0.000000 -5.821615 0.347327 -0.822769 -0.021811 -0.416178 0.000000 15.234339 -1.178363 -2.794199 -0.023542 -0.449215 0.000000 -8.923996 -7.236751 -4.605283 
0.058814 -0.015057 0.000097 0.000001 -7.310071 0.000005 -0.000000 -0.000000 0.000000 -11.100622 0.705763 -4.691706 10.021090 4.425449 -0.544434 0.000000 0.281131 -0.034519 15.493348 7.661519 -3.578237 -0.000000 0.216495 -0.003779 7.119929 0.000003 -0.000001 0.000000 0.281131 -0.034519 -0.030626 -0.000064 -0.248771 0.181840 -0.000000 0.000000 4.261921 5.284101 -78.738134 0.301621 0.001119 -0.000135 -16.775428 -35.813895 -50.569348 0.000000 0.281131 -0.034519 -0.037296 -0.000094 -0.303688 -0.181839 0.000000 0.000000 -5.930706 7.441642 77.122862 -0.299418 0.001119 -0.000135 -10.995905 32.181618 38.230317 -0.000000 0.000000 -0.000000 0.000099 0.000004 -5.341774 -0.000000 -0.000000 -0.000000 0.000009 -0.000001 -5.341731 0.101205 -0.009463 -0.000000 0.428020 0.003019 -5.191007 0.022393 -0.427281 0.000000 10.243133 0.656153 1.311065 0.022450 -0.428364 0.000000 -10.440203 3.669483 3.008868 -0.101205 0.009463 0.000000 -5.821549 0.347242 -0.821150 -0.021811 -0.416178 0.000000 15.237548 -1.179097 -2.797886 -0.023542 -0.449215 0.000000 -8.931149 -7.246436 -4.611535 
0.058852 -0.015134 0.000100 0.000001 -7.300665 0.000005 -0.000000 -0.000000 -0.000000 -11.116144 0.706626 -4.693148 10.021428 4.456843 -0.548312 -0.000000 0.281131 -0.034519 15.322913 7.585571 -3.557782 0.000000 0.216495 -0.003779 7.210567 0.000001 -0.000004 -0.000000 0.281131 -0.034518 -0.030355 -0.000062 -0.247050 0.181840 0.000000 -0.000000 4.241962 5.259638 -78.737376 0.301621 0.001119 -0.000135 -16.713867 -35.755999 -50.484718 -0.000000 0.281131 -0.034518 -0.037096 -0.000093 -0.301971 -0.181839 -0.000000 0.000000 -5.891597 7.393847 77.111729 -0.299418 0.001119 -0.000135 -11.038089 32.261138 38.268990 -0.000000 0.000000 0.000000 0.000079 0.000003 -5.339852 -0.000000 0.000000 0.000000 0.000002 0.000000 -5.339850 0.101205 -0.009460 0.000000 0.434385 0.003087 -5.184102 0.022393 -0.427281 0.000000 10.226245 0.653426 1.292765 0.022450 -0.428364 0.000000 -10.410062 3.672571 3.006057 -0.101205 0.009459 0.000000 -5.823056 0.347203 -0.818672 -0.021811 -0.416178 0.000000 15.243396 -1.180232 -2.802841 -0.023542 -0.449215 0.000000 -8.937261 -7.260527 -4.619826 
0.058888 -0.015210 0.000093 0.000001 -7.288017 0.000005 -0.000000 -0.000000 0.000000 -11.134489 0.707710 -4.695198 10.021771 4.499314 -0.553590 -0.000000 0.281131 -0.034519 15.122339 7.499181 -3.522273 -0.000000 0.216495 -0.003779 7.336049 0.000003 0.000001 -0.000000 0.281131 -0.034518 -0.029436 -0.000062 -0.239854 0.181840 -0.000000 0.000000 4.208837 5.218065 -78.747655 0.301621 0.001119 -0.000135 -16.659540 -35.710141 -50.402302 -0.000000 0.281131 -0.034518 -0.036210 -0.000094 -0.294811 -0.181839 -0.000000 0.000000 -5.838733 7.328922 77.097522 -0.299418 0.001119 -0.000135 -11.087915 32.352724 38.317293 -0.000000 0.000000 0.000000 0.000038 0.000003 -5.330370 -0.000000 0.000000 0.000000 0.000002 0.000000 -5.330333 0.101206 -0.009443 -0.000000 0.433814 0.003113 -5.176331 0.022393 -0.427281 0.000000 10.217814 0.651214 1.274205 0.022450 -0.428364 0.000000 -10.388961 3.672551 3.002936 -0.101207 0.009443 0.000000 -5.826095 0.347226 -0.815482 -0.021811 -0.416178 0.000000 15.251768 -1.181549 -2.807772 -0.023542 -0.449215 0.000000 -8.940794 -7.279877 -4.630317 
0.058922 -0.015313 0.000079 0.000001 -7.274751 0.000005 -0.000000 -0.000000 0.000000 -11.155885 0.708874 -4.696976 10.022068 4.533941 -0.557891 -0.000000 0.281131 -0.034518 14.917931 7.422459 -3.482726 -0.000000 0.216495 -0.003779 7.481623 0.000004 0.000002 -0.000000 0.281131 -0.034519 -0.027816 -0.000050 -0.226914 0.181840 0.000000 0.000000 4.184841 5.185182 -78.785296 0.301621 0.001119 -0.000135 -16.617895 -35.696157 -50.309100 -0.000000 0.281131 -0.034519 -0.034583 -0.000081 -0.281799 -0.181839 0.000000 -0.000000 -5.799185 7.281835 77.075522 -0.299418 0.001119 -0.000135 -11.126094 32.416730 38.361833 -0.000000 0.000000 0.000000 0.000073 0.000004 -5.311602 -0.000000 0.000000 0.000000 0.000002 0.000000 -5.311573 0.101210 -0.009410 0.000000 0.431041 0.003132 -5.167128 0.022393 -0.427281 0.000000 10.215466 0.649246 1.253841 0.022450 -0.428364 0.000000 -10.389224 3.671979 3.002673 -0.101210 0.009409 0.000000 -5.831119 0.347407 -0.813197 -0.021811 -0.416178 0.000000 15.263009 -1.182723 -2.809974 -0.023542 -0.449215 0.000000 -8.933804 -7.303135 -4.640871 
0.058965 -0.015447 0.000068 0.000001 -7.260982 0.000005 -0.000000 -0.000000 -0.000000 -11.179559 0.710005 -4.697914 10.022122 4.537467 -0.558298 -0.000000 0.281131 -0.034519 14.746225 7.390301 -3.447490 -0.000000 0.216495 -0.003779 7.615603 -0.000000 0.000004 -0.000000 0.281131 -0.034518 -0.026665 -0.000051 -0.216243 0.181840 0.000000 0.000000 4.169711 5.160648 -78.851296 0.301621 0.001119 -0.000135 -16.566414 -35.702044 -50.160974 -0.000000 0.281131 -0.034518 -0.033331 -0.000075 -0.271162 -0.181839 0.000000 0.000000 -5.795175 7.280270 77.048844 -0.299418 0.001119 -0.000135 -11.141159 32.428488 38.396195 0.000000 -0.000000 0.000000 -0.000102 -0.000004 -5.286225 0.000000 -0.000000 0.000000 -0.000003 -0.000000 -5.286226 0.101214 -0.009365 -0.000000 0.431021 0.003150 -5.160354 0.022393 -0.427281 0.000000 10.227447 0.648438 1.236452 0.022450 -0.428364 0.000000 -10.437013 3.664461 3.005748 -0.101214 0.009365 0.000000 -5.837981 0.347816 -0.813194 -0.021811 -0.416178 0.000000 15.278525 -1.183722 -2.808300 -0.023542 -0.449215 0.000000 -8.907747 -7.330705 -4.650078 
